<?xml version="1.0" encoding="utf-8"?><svg viewBox="0 0 512 512" xmlns="http://www.w3.org/2000/svg" xmlns:xlink="http://www.w3.org/1999/xlink"><style>:root>svg{display:none}:root>svg:target{display:block}</style><svg viewBox="0 0 24 24" fill="none" stroke="currentColor" stroke-width="2" stroke-linecap="round" stroke-linejoin="round" class="afeather afeather-external-link" id="card-external" xmlns="http://www.w3.org/2000/svg"><path d="M18 13v6a2 2 0 0 1-2 2H5a2 2 0 0 1-2-2V8a2 2 0 0 1 2-2h6M15 3h6v6M10 14 21 3"/></svg><svg viewBox="0 0 24 24" fill="none" stroke="currentColor" stroke-width="2" stroke-linecap="round" stroke-linejoin="round" class="bfeather bfeather-github" id="card-github" xmlns="http://www.w3.org/2000/svg"><path d="M9 19c-5 1.5-5-2.5-7-3m14 6v-3.87a3.37 3.37 0 0 0-.94-2.61c3.14-.35 6.44-1.54 6.44-7A5.44 5.44 0 0 0 20 4.77 5.07 5.07 0 0 0 19.91 1S18.73.65 16 2.48a13.38 13.38 0 0 0-7 0C6.27.65 5.09 1 5.09 1A5.07 5.07 0 0 0 5 4.77a5.44 5.44 0 0 0-1.5 3.78c0 5.42 3.3 6.61 6.44 7A3.37 3.37 0 0 0 9 18.13V22"/></svg><svg viewBox="0 0 24 24" fill="none" stroke="currentColor" stroke-width="2" stroke-linecap="round" stroke-linejoin="round" id="github" xmlns="http://www.w3.org/2000/svg"><path d="M9 19c-5 1.5-5-2.5-7-3m14 6v-3.87a3.37 3.37 0 0 0-.94-2.61c3.14-.35 6.44-1.54 6.44-7A5.44 5.44 0 0 0 20 4.77 5.07 5.07 0 0 0 19.91 1S18.73.65 16 2.48a13.38 13.38 0 0 0-7 0C6.27.65 5.09 1 5.09 1A5.07 5.07 0 0 0 5 4.77a5.44 5.44 0 0 0-1.5 3.78c0 5.42 3.3 6.61 6.44 7A3.37 3.37 0 0 0 9 18.13V22"/></svg><svg fill="none" viewBox="0 0 15 15" id="telegram" xmlns="http://www.w3.org/2000/svg"><path d="m14.5 1.5-14 5 4 2 6-4-4 5 6 4 2-12Z" stroke="var(--light-slate)" stroke-linejoin="round"/></svg><svg viewBox="0 0 512.001 512.001" style="enable-background:new 0 0 512.001 512.001" xml:space="preserve" id="whatsapp" xmlns="http://www.w3.org/2000/svg"><path d="M256.001 0c-140.95 0-256 115.04-256 256 0 44.49 13.15 89.6 38.1 130.9L.861 491.99a14.997 14.997 0 0 0 3.48 15.56c2.86 2.9 6.72 4.45 10.66 4.45 1.63 0 3.27-.26 4.86-.81l106.16-36.34c40.8 24.66 84.49 37.15 129.98 37.15 68.11 0 132.33-26.7 180.81-75.19 48.49-48.48 75.19-112.7 75.19-180.81 0-140.95-115.041-256-256-256zm0 482c-41.99 0-82.37-12.21-120.03-36.29a15 15 0 0 0-12.94-1.55l-83.52 28.6 29.28-82.64c1.54-4.36.99-9.19-1.5-13.09-24.4-38.15-37.29-80.01-37.29-121.03 0-124.62 101.38-226 226-226s226 101.38 226 226-101.38 226-226 226z"/><path d="m412.69 317.42-47.65-47.64c-6.01-6.02-14.01-9.33-22.51-9.33-8.51 0-16.51 3.31-22.52 9.33l-11.91 11.91a18.595 18.595 0 0 1-13.22 5.47c-4.99 0-9.69-1.94-13.22-5.47l-47.65-47.65c-7.28-7.29-7.28-19.14 0-26.43l11.92-11.91c6.01-6.02 9.32-14.02 9.32-22.52 0-8.51-3.31-16.51-9.32-22.52l-47.65-47.65c-12.42-12.41-32.62-12.41-45.04 0l-11.91 11.91c-17.05 17.05-22.73 53.05-14.83 93.95 8.54 44.25 30.73 86.11 62.48 117.86 31.74 31.74 73.6 53.93 117.86 62.48 29.72 5.74 72.69 6.41 93.94-14.84l11.91-11.91c6.02-6.01 9.33-14.01 9.33-22.52.001-8.5-3.31-16.5-9.33-22.52zm-21.21 23.83-11.91 11.91c-8.14 8.14-33.79 13.02-67.05 6.59-22.26-4.3-65.15-17.06-102.33-54.24-37.18-37.18-49.94-80.07-54.24-102.33-2.06-10.67-2.96-20.55-2.96-29.32 0-18.59 4.03-32.19 9.55-37.72l11.92-11.91c.36-.36.83-.54 1.3-.54s.95.18 1.31.54l47.64 47.64c.36.36.54.8.54 1.31s-.18.94-.54 1.3L212.8 186.4c-18.98 18.98-18.98 49.87 0 68.85l47.65 47.65c9.19 9.2 21.42 14.26 34.43 14.26 13 0 25.23-5.06 34.43-14.26l11.91-11.91c.72-.72 1.89-.72 2.61 0l47.65 47.65c.36.36.54.8.54 1.3.001.51-.179.95-.54 1.31z"/></svg></svg>